<svg width="56" height="56" viewBox="0 0 56 56" fill="none" xmlns="http://www.w3.org/2000/svg">
<g clip-path="url(#clip0_972_942)">
<path d="M33.8415 3.024L28 0L22.1585 3.024L15.6555 4.011L12.7085 9.891L8.029 14.511L9.1 21L8.029 27.489L12.7085 32.109L15.6555 37.989L22.1585 38.976L28 42L33.8415 38.976L40.3445 37.989L43.2915 32.109L47.971 27.489L46.9 21L47.971 14.511L43.2915 9.891L40.3445 4.011L33.8415 3.024ZM38.0275 7.1995L40.4215 11.977L44.2225 15.729L43.3545 21L44.2225 26.271L40.4215 30.023L38.0275 34.8005L32.7425 35.602L28 38.059L23.2575 35.602L17.9725 34.8005L15.5785 30.023L11.7775 26.271L12.649 21L11.774 15.729L15.5785 11.977L17.9725 7.1995L23.2575 6.398L28 3.941L32.746 6.398L38.0275 7.1995Z" fill="#7244F9"/>
<path d="M14 41.2791V56.0001L28 52.5001L42 56.0001V41.2791L34.937 42.3501L28 45.9411L21.063 42.3501L14 41.2791Z" fill="#7244F9"/>
</g>
<defs>
<clipPath id="clip0_972_942">
<rect width="56" height="56" fill="white"/>
</clipPath>
</defs>
</svg>
