<svg width="102" height="64" viewBox="0 0 102 64" fill="none" xmlns="http://www.w3.org/2000/svg">
<g clip-path="url(#clip0_972_978)">
<path d="M35.3871 14.8388C35.3871 14.4624 35.5366 14.1013 35.8028 13.8352C36.069 13.569 36.43 13.4194 36.8065 13.4194H65.1936C65.57 13.4194 65.931 13.569 66.1972 13.8352C66.4634 14.1013 66.6129 14.4624 66.6129 14.8388C66.6129 16.366 66.5807 17.8194 66.5164 19.199C67.6381 19.3848 68.7112 19.7932 69.6725 20.4003C70.6338 21.0074 71.4638 21.8009 72.1135 22.7338C72.7633 23.6668 73.2196 24.7205 73.4557 25.8326C73.6917 26.9448 73.7027 28.093 73.4879 29.2094C73.2732 30.3259 72.837 31.3881 72.2052 32.3333C71.5734 33.2785 70.7587 34.0877 69.8092 34.713C68.8597 35.3384 67.7946 35.7672 66.6766 35.9744C65.5587 36.1815 64.4107 36.1627 63.3001 35.919C61.0575 41.2132 57.969 43.8021 55.2581 44.4664V50.6349L59.3032 51.6455C59.8539 51.7818 60.3734 52.0287 60.8276 52.3694L66.0452 56.284C66.2835 56.4627 66.4595 56.7119 66.5483 56.9962C66.6372 57.2806 66.6343 57.5857 66.5401 57.8683C66.4459 58.1509 66.2651 58.3967 66.0235 58.5709C65.7818 58.7451 65.4914 58.8388 65.1936 58.8388H36.8065C36.5086 58.8388 36.2182 58.7451 35.9765 58.5709C35.7349 58.3967 35.5541 58.1509 35.4599 57.8683C35.3657 57.5857 35.3628 57.2806 35.4517 56.9962C35.5405 56.7119 35.7165 56.4627 35.9548 56.284L41.1724 52.3694C41.6266 52.0287 42.1461 51.7818 42.6968 51.6455L46.7419 50.6349V44.4664C44.031 43.8021 40.9425 41.2132 38.6999 35.9162C37.5888 36.1612 36.4398 36.181 35.3209 35.9745C34.202 35.7681 33.1358 35.3395 32.1854 34.7141C31.2349 34.0886 30.4193 33.2791 29.7869 32.3333C29.1545 31.3874 28.718 30.3244 28.5033 29.2071C28.2885 28.0898 28.2999 26.9407 28.5366 25.8278C28.7734 24.7149 29.2307 23.6608 29.8817 22.7276C30.5326 21.7944 31.364 21.0011 32.3266 20.3946C33.2893 19.788 34.3637 19.3806 35.4865 19.1962C35.4195 17.7447 35.3864 16.2918 35.3871 14.8388ZM35.6681 22.0491C34.1869 22.3201 32.8739 23.1685 32.0181 24.4076C31.1624 25.6467 30.8339 27.1749 31.1049 28.6562C31.3759 30.1375 32.2243 31.4504 33.4634 32.3062C34.7024 33.162 36.2307 33.4905 37.712 33.2194C36.7667 30.2388 36.0428 26.5598 35.6681 22.0491ZM64.2908 33.2194C65.7721 33.4905 67.3004 33.162 68.5395 32.3062C69.7785 31.4504 70.6269 30.1375 70.8979 28.6562C71.169 27.1749 70.8405 25.6467 69.9847 24.4076C69.1289 23.1685 67.816 22.3201 66.3347 22.0491C65.9572 26.5627 65.2333 30.2388 64.2908 33.2194ZM38.2372 16.2581C38.2561 17.7248 38.3091 19.1148 38.3961 20.4282C38.7652 26.1851 39.6934 30.4943 40.8658 33.6765C43.3185 40.3304 46.6965 41.8065 48.1613 41.8065C48.5377 41.8065 48.8987 41.9561 49.1649 42.2222C49.4311 42.4884 49.5806 42.8495 49.5806 43.2259V50.6349C49.5806 51.2677 49.3692 51.8824 48.9798 52.3813C48.5905 52.8802 48.0456 53.2347 47.4317 53.3885L43.3837 54.399C43.2 54.4448 43.0272 54.5268 42.8756 54.6403L41.0645 56.0001H60.9355L59.1244 54.6403C58.972 54.5265 58.7982 54.4444 58.6134 54.399L54.5683 53.3885C53.9544 53.2347 53.4095 52.8802 53.0202 52.3813C52.6308 51.8824 52.4194 51.2677 52.4194 50.6349V43.2259C52.4194 42.8495 52.5689 42.4884 52.8351 42.2222C53.1013 41.9561 53.4623 41.8065 53.8387 41.8065C55.3035 41.8065 58.6815 40.3304 61.1342 33.6765C62.3066 30.4971 63.2348 26.1823 63.6039 20.4282C63.689 19.1148 63.742 17.7248 63.7628 16.2581H38.2372Z" fill="#EFEFEF"/>
</g>
<g filter="url(#filter0_d_972_978)">
<path d="M62.4478 12.1741C62.4774 12.0847 62.5345 12.0069 62.6108 11.9517C62.6872 11.8966 62.779 11.8669 62.8731 11.8669C62.9673 11.8669 63.0591 11.8966 63.1355 11.9517C63.2118 12.0069 63.2689 12.0847 63.2985 12.1741L64.0975 14.5733C64.4547 15.6428 65.293 16.481 66.3625 16.8382L68.7617 17.6373C68.8511 17.6669 68.9289 17.7239 68.984 17.8003C69.0392 17.8766 69.0689 17.9684 69.0689 18.0626C69.0689 18.1568 69.0392 18.2486 68.984 18.3249C68.9289 18.4013 68.8511 18.4583 68.7617 18.4879L66.3625 19.287C65.8347 19.4621 65.3551 19.7581 64.9619 20.1513C64.5687 20.5445 64.2727 21.0241 64.0975 21.5519L63.2985 23.9511C63.2689 24.0405 63.2118 24.1183 63.1355 24.1735C63.0591 24.2286 62.9673 24.2583 62.8731 24.2583C62.779 24.2583 62.6872 24.2286 62.6108 24.1735C62.5345 24.1183 62.4774 24.0405 62.4478 23.9511L61.6488 21.5519C61.4736 21.0241 61.1776 20.5445 60.7844 20.1513C60.3912 19.7581 59.9116 19.4621 59.3838 19.287L56.9846 18.4879C56.8952 18.4583 56.8174 18.4013 56.7623 18.3249C56.7071 18.2486 56.6774 18.1568 56.6774 18.0626C56.6774 17.9684 56.7071 17.8766 56.7623 17.8003C56.8174 17.7239 56.8952 17.6669 56.9846 17.6373L59.3838 16.8382C59.9116 16.6631 60.3912 16.3671 60.7844 15.9739C61.1776 15.5806 61.4736 15.101 61.6488 14.5733L62.4478 12.1741ZM68.7844 5.8788C68.8048 5.82001 68.843 5.76904 68.8937 5.73296C68.9443 5.69688 69.005 5.67749 69.0672 5.67749C69.1295 5.67749 69.1901 5.69688 69.2408 5.73296C69.2915 5.76904 69.3297 5.82001 69.3501 5.8788L69.8828 7.47688C70.1202 8.19127 70.6798 8.7508 71.3942 8.98824L72.9922 9.52093C73.051 9.54132 73.102 9.57951 73.1381 9.6302C73.1742 9.6809 73.1936 9.74157 73.1936 9.8038C73.1936 9.86602 73.1742 9.9267 73.1381 9.97739C73.102 10.0281 73.051 10.0663 72.9922 10.0867L71.3942 10.6194C71.0424 10.737 70.7228 10.9348 70.4605 11.1971C70.1983 11.4594 70.0005 11.779 69.8828 12.1307L69.3501 13.7288C69.3297 13.7876 69.2915 13.8386 69.2408 13.8746C69.1901 13.9107 69.1295 13.9301 69.0672 13.9301C69.005 13.9301 68.9443 13.9107 68.8937 13.8746C68.843 13.8386 68.8048 13.7876 68.7844 13.7288L68.2517 12.1307C68.134 11.779 67.9362 11.4594 67.674 11.1971C67.4117 10.9348 67.0921 10.737 66.7403 10.6194L65.1423 10.0867C65.0835 10.0663 65.0325 10.0281 64.9964 9.97739C64.9603 9.9267 64.9409 9.86602 64.9409 9.8038C64.9409 9.74157 64.9603 9.6809 64.9964 9.6302C65.0325 9.57951 65.0835 9.54132 65.1423 9.52093L66.7403 8.98824C67.4547 8.7508 68.0142 8.19127 68.2517 7.47688L68.7844 5.8788Z" fill="#7244F9"/>
</g>
<defs>
<filter id="filter0_d_972_978" x="52.6774" y="3.67749" width="24.5161" height="26.5808" filterUnits="userSpaceOnUse" color-interpolation-filters="sRGB">
<feFlood flood-opacity="0" result="BackgroundImageFix"/>
<feColorMatrix in="SourceAlpha" type="matrix" values="0 0 0 0 0 0 0 0 0 0 0 0 0 0 0 0 0 0 127 0" result="hardAlpha"/>
<feOffset dy="2"/>
<feGaussianBlur stdDeviation="2"/>
<feComposite in2="hardAlpha" operator="out"/>
<feColorMatrix type="matrix" values="0 0 0 0 0 0 0 0 0 0 0 0 0 0 0 0 0 0 0.25 0"/>
<feBlend mode="normal" in2="BackgroundImageFix" result="effect1_dropShadow_972_978"/>
<feBlend mode="normal" in="SourceGraphic" in2="effect1_dropShadow_972_978" result="shape"/>
</filter>
<clipPath id="clip0_972_978">
<rect width="45.4194" height="45.4194" fill="white" transform="translate(28.2903 13.4194)"/>
</clipPath>
</defs>
</svg>
