<svg width="56" height="56" viewBox="0 0 56 56" fill="none" xmlns="http://www.w3.org/2000/svg">
<g clip-path="url(#clip0_972_947)">
<path d="M39.739 22.239C40.0676 21.9104 40.2522 21.4647 40.2522 21C40.2522 20.5353 40.0676 20.0896 39.739 19.761C39.4104 19.4324 38.9647 19.2478 38.5 19.2478C38.0353 19.2478 37.5896 19.4324 37.261 19.761L28 29.0255L23.989 25.011C23.8263 24.8483 23.6331 24.7192 23.4206 24.6312C23.208 24.5431 22.9801 24.4978 22.75 24.4978C22.5199 24.4978 22.2921 24.5431 22.0795 24.6312C21.8669 24.7192 21.6737 24.8483 21.511 25.011C21.3483 25.1737 21.2192 25.3669 21.1312 25.5795C21.0431 25.7921 20.9978 26.0199 20.9978 26.25C20.9978 26.4801 21.0431 26.708 21.1312 26.9206C21.2192 27.1331 21.3483 27.3263 21.511 27.489L26.761 32.739C26.9236 32.902 27.1167 33.0313 27.3293 33.1195C27.5419 33.2077 27.7698 33.2531 28 33.2531C28.2302 33.2531 28.4581 33.2077 28.6707 33.1195C28.8833 33.0313 29.0765 32.902 29.239 32.739L39.739 22.239Z" fill="#7244F9"/>
<path d="M1.75 3.5C1.28587 3.5 0.840752 3.68437 0.512563 4.01256C0.184374 4.34075 0 4.78587 0 5.25C0 5.71413 0.184374 6.15925 0.512563 6.48744C0.840752 6.81563 1.28587 7 1.75 7H5.635L7.0385 12.6245L12.2815 40.572C12.3566 40.973 12.5694 41.3352 12.8832 41.596C13.197 41.8567 13.592 41.9996 14 42H17.5C15.6435 42 13.863 42.7375 12.5503 44.0503C11.2375 45.363 10.5 47.1435 10.5 49C10.5 50.8565 11.2375 52.637 12.5503 53.9497C13.863 55.2625 15.6435 56 17.5 56C19.3565 56 21.137 55.2625 22.4497 53.9497C23.7625 52.637 24.5 50.8565 24.5 49C24.5 47.1435 23.7625 45.363 22.4497 44.0503C21.137 42.7375 19.3565 42 17.5 42H42C40.1435 42 38.363 42.7375 37.0503 44.0503C35.7375 45.363 35 47.1435 35 49C35 50.8565 35.7375 52.637 37.0503 53.9497C38.363 55.2625 40.1435 56 42 56C43.8565 56 45.637 55.2625 46.9497 53.9497C48.2625 52.637 49 50.8565 49 49C49 47.1435 48.2625 45.363 46.9497 44.0503C45.637 42.7375 43.8565 42 42 42H45.5C45.908 41.9996 46.303 41.8567 46.6168 41.596C46.9306 41.3352 47.1434 40.973 47.2185 40.572L52.4685 12.572C52.5158 12.3194 52.5069 12.0595 52.4424 11.8108C52.3779 11.5621 52.2594 11.3306 52.0954 11.1328C51.9313 10.935 51.7257 10.7758 51.4932 10.6664C51.2607 10.5571 51.007 10.5002 50.75 10.5H10.115L8.6975 4.8265C8.60303 4.44774 8.38464 4.11145 8.07706 3.87109C7.76947 3.63073 7.39036 3.50011 7 3.5H1.75ZM15.4525 38.5L10.857 14H48.643L44.0475 38.5H15.4525ZM21 49C21 49.9283 20.6312 50.8185 19.9749 51.4749C19.3185 52.1312 18.4283 52.5 17.5 52.5C16.5717 52.5 15.6815 52.1312 15.0251 51.4749C14.3687 50.8185 14 49.9283 14 49C14 48.0717 14.3687 47.1815 15.0251 46.5251C15.6815 45.8688 16.5717 45.5 17.5 45.5C18.4283 45.5 19.3185 45.8688 19.9749 46.5251C20.6312 47.1815 21 48.0717 21 49ZM45.5 49C45.5 49.9283 45.1312 50.8185 44.4749 51.4749C43.8185 52.1312 42.9283 52.5 42 52.5C41.0717 52.5 40.1815 52.1312 39.5251 51.4749C38.8687 50.8185 38.5 49.9283 38.5 49C38.5 48.0717 38.8687 47.1815 39.5251 46.5251C40.1815 45.8688 41.0717 45.5 42 45.5C42.9283 45.5 43.8185 45.8688 44.4749 46.5251C45.1312 47.1815 45.5 48.0717 45.5 49Z" fill="#7244F9"/>
</g>
<defs>
<clipPath id="clip0_972_947">
<rect width="56" height="56" fill="white"/>
</clipPath>
</defs>
</svg>
