<svg width="102" height="64" viewBox="0 0 102 64" fill="none" xmlns="http://www.w3.org/2000/svg">
<path d="M28.2247 31.397C28.0951 30.4634 29.2267 29.9031 29.8905 30.5723L33.7856 34.5005C34.6423 35.3638 35.6883 36.0157 36.8407 36.4045C37.9931 36.7933 39.2203 36.9084 40.4249 36.7405L45.9016 35.9792C46.8352 35.8495 47.3955 36.9811 46.7264 37.645L42.7982 41.5401C41.9349 42.3968 41.283 43.4428 40.8942 44.5952C40.5053 45.7476 40.3903 46.9748 40.5581 48.1794L41.3195 53.6561C41.3488 53.8601 41.3129 54.0681 41.2169 54.2505C41.121 54.4329 40.9699 54.5803 40.7852 54.6718C40.6006 54.7632 40.3917 54.794 40.1885 54.7597C39.9853 54.7254 39.7981 54.6278 39.6536 54.4809L35.7585 50.5526C34.9022 49.6895 33.8566 49.0376 32.7047 48.6486C31.5527 48.2595 30.326 48.1441 29.1217 48.3114L23.6425 49.074C23.4386 49.1032 23.2305 49.0674 23.0481 48.9714C22.8658 48.8755 22.7183 48.7244 22.6269 48.5397C22.5354 48.355 22.5047 48.1462 22.5389 47.943C22.5732 47.7398 22.6708 47.5526 22.8178 47.4081L26.746 43.513C27.6092 42.6567 28.2611 41.6111 28.6501 40.4592C29.0391 39.3072 29.1545 38.0805 28.9872 36.8762L28.2247 31.397ZM12.7135 23.6593C12.6963 23.5369 12.7181 23.4122 12.7757 23.3029C12.8334 23.1936 12.9241 23.1052 13.0349 23.0503C13.1457 22.9955 13.2709 22.977 13.3928 22.9974C13.5147 23.0178 13.6271 23.0761 13.714 23.164L16.0508 25.5204C17.0937 26.5703 18.5678 27.0681 20.0336 26.8654L23.3207 26.4081C23.4431 26.3909 23.5678 26.4127 23.6771 26.4703C23.7864 26.528 23.8748 26.6187 23.9296 26.7295C23.9845 26.8403 24.003 26.9655 23.9826 27.0874C23.9622 27.2093 23.9039 27.3217 23.816 27.4086L21.4596 29.7454C20.9408 30.2588 20.5491 30.8862 20.3156 31.5776C20.0821 32.2691 20.0132 33.0055 20.1146 33.7282L20.5719 37.0153C20.5891 37.1377 20.5673 37.2624 20.5096 37.3717C20.452 37.481 20.3613 37.5694 20.2505 37.6242C20.1397 37.6791 20.0145 37.6976 19.8926 37.6772C19.7707 37.6568 19.6583 37.5985 19.5714 37.5106L17.2346 35.1541C16.7212 34.6354 16.0938 34.2437 15.4024 34.0102C14.7109 33.7767 13.9745 33.7078 13.2517 33.8092L9.96472 34.2665C9.84232 34.2837 9.7176 34.2619 9.60828 34.2042C9.49896 34.1465 9.41059 34.0559 9.35575 33.9451C9.3009 33.8343 9.28236 33.7091 9.30276 33.5872C9.32316 33.4652 9.38146 33.3529 9.46938 33.266L11.8258 30.9291C12.3446 30.4158 12.7363 29.7884 12.9698 29.097C13.2033 28.4055 13.2721 27.6691 13.1708 26.9463L12.7135 23.6593ZM28.6183 12.613C28.608 12.532 28.6233 12.4498 28.6619 12.3779C28.7005 12.3059 28.7606 12.2478 28.8338 12.2115C28.9069 12.1753 28.9896 12.1628 29.0702 12.1757C29.1509 12.1886 29.2255 12.2263 29.2837 12.2836L30.8408 13.8529C31.536 14.5549 32.5199 14.8872 33.4984 14.7504L35.6881 14.4464C35.7691 14.4361 35.8513 14.4513 35.9233 14.49C35.9952 14.5286 36.0534 14.5886 36.0896 14.6618C36.1258 14.735 36.1384 14.8177 36.1254 14.8983C36.1125 14.9789 36.0748 15.0535 36.0175 15.1117L34.4482 16.6688C34.103 17.0121 33.8423 17.4308 33.6865 17.892C33.5308 18.3531 33.4843 18.8442 33.5507 19.3264L33.8548 21.5162C33.865 21.5972 33.8498 21.6794 33.8112 21.7513C33.7726 21.8233 33.7125 21.8814 33.6393 21.9176C33.5661 21.9539 33.4835 21.9664 33.4028 21.9535C33.3222 21.9406 33.2476 21.9029 33.1894 21.8456L31.6323 20.2762C31.2891 19.9311 30.8704 19.6703 30.4092 19.5146C29.948 19.3589 29.4569 19.3124 28.9747 19.3788L26.7874 19.6816C26.7064 19.6919 26.6242 19.6766 26.5522 19.638C26.4803 19.5994 26.4221 19.5393 26.3859 19.4662C26.3497 19.393 26.3371 19.3103 26.3501 19.2297C26.363 19.1491 26.4007 19.0745 26.458 19.0163L28.0273 17.4592C28.7293 16.7639 29.0615 15.78 28.9248 14.8015L28.6183 12.613Z" fill="#7244F9"/>
<g filter="url(#filter0_d_972_982)">
<path d="M84.1263 11.7091L84.5376 11.2979C84.8471 10.9885 85.2145 10.7432 85.6189 10.5758C86.0233 10.4085 86.4567 10.3224 86.8943 10.3225C87.3319 10.3226 87.7652 10.409 88.1695 10.5766C88.5738 10.7441 88.9411 10.9897 89.2504 11.2993C89.5598 11.6088 89.8052 11.9763 89.9725 12.3806C90.1399 12.785 90.2259 13.2184 90.2258 13.656C90.2257 14.0936 90.1394 14.5269 89.9718 14.9312C89.8042 15.3355 89.5586 15.7028 89.2491 16.0121L88.8378 16.4206C89.5413 17.2096 89.9164 18.2379 89.8861 19.2945C89.8558 20.3512 89.4225 21.3563 88.675 22.1037L60.268 50.5134C60.0904 50.6901 59.8681 50.815 59.6249 50.875L48.5845 53.6351C48.3534 53.6926 48.1114 53.6894 47.882 53.6257C47.6526 53.5621 47.4435 53.4401 47.2752 53.2718C47.1068 53.1034 46.9849 52.8943 46.9212 52.6649C46.8576 52.4355 46.8543 52.1935 46.9119 51.9625L49.672 40.9221C49.7324 40.6798 49.8573 40.4585 50.0335 40.2817L76.6464 13.6688C76.3803 13.4815 76.0565 13.3943 75.7322 13.4225C75.408 13.4508 75.1042 13.5928 74.8744 13.8234L65.7882 22.9124C65.6599 23.0407 65.5076 23.1425 65.3399 23.2119C65.1723 23.2814 64.9926 23.3171 64.8111 23.3171C64.6297 23.3171 64.45 23.2814 64.2823 23.2119C64.1147 23.1425 63.9624 23.0407 63.834 22.9124C63.7057 22.7841 63.604 22.6318 63.5345 22.4641C63.4651 22.2965 63.4293 22.1168 63.4293 21.9353C63.4293 21.7539 63.4651 21.5742 63.5345 21.4065C63.604 21.2389 63.7057 21.0866 63.834 20.9582L72.9258 11.872C73.6737 11.124 74.6796 10.6907 75.7369 10.661C76.7942 10.6312 77.8228 11.0072 78.6116 11.7119C79.37 11.0341 80.3513 10.6592 81.3684 10.6587C82.3855 10.6582 83.3673 11.0321 84.1263 11.7091Z" fill="#EFEFEF"/>
</g>
<defs>
<filter id="filter0_d_972_982" x="42.871" y="8.32251" width="51.3548" height="51.3535" filterUnits="userSpaceOnUse" color-interpolation-filters="sRGB">
<feFlood flood-opacity="0" result="BackgroundImageFix"/>
<feColorMatrix in="SourceAlpha" type="matrix" values="0 0 0 0 0 0 0 0 0 0 0 0 0 0 0 0 0 0 127 0" result="hardAlpha"/>
<feOffset dy="2"/>
<feGaussianBlur stdDeviation="2"/>
<feComposite in2="hardAlpha" operator="out"/>
<feColorMatrix type="matrix" values="0 0 0 0 0 0 0 0 0 0 0 0 0 0 0 0 0 0 0.25 0"/>
<feBlend mode="normal" in2="BackgroundImageFix" result="effect1_dropShadow_972_982"/>
<feBlend mode="normal" in="SourceGraphic" in2="effect1_dropShadow_972_982" result="shape"/>
</filter>
</defs>
</svg>
