<svg width="64" height="64" viewBox="0 0 64 64" fill="none" xmlns="http://www.w3.org/2000/svg">
<g clip-path="url(#clip0_972_1005)">
<path d="M64 32.1961C64 14.4121 49.672 -0.00390625 32 -0.00390625C14.32 9.37502e-05 -0.00799561 14.4121 -0.00799561 32.2001C-0.00799561 48.2681 11.696 61.5881 26.992 64.0041V41.5041H18.872V32.2001H27V25.1001C27 17.0321 31.78 12.5761 39.088 12.5761C42.592 12.5761 46.252 13.2041 46.252 13.2041V21.1241H42.216C38.244 21.1241 37.004 23.6081 37.004 26.1561V32.1961H45.876L44.46 41.5001H37V64.0001C52.296 61.5841 64 48.2641 64 32.1961Z" fill="#EFEFEF"/>
</g>
<defs>
<clipPath id="clip0_972_1005">
<rect width="64" height="64" fill="white"/>
</clipPath>
</defs>
</svg>
