<svg width="48" height="48" viewBox="0 0 48 48" fill="none" xmlns="http://www.w3.org/2000/svg">
<path d="M24.18 19.5C24.5778 19.5 24.9594 19.658 25.2407 19.9393C25.522 20.2206 25.68 20.6022 25.68 21V23.328C25.6797 26.9116 25.121 30.4734 24.024 33.885L20.031 46.305C19.9021 46.6742 19.634 46.9785 19.284 47.153C18.934 47.3274 18.5297 47.3583 18.1572 47.239C17.7848 47.1197 17.4737 46.8596 17.2902 46.5142C17.1067 46.1688 17.0654 45.7654 17.175 45.39L21.165 32.967C22.1666 29.852 22.6767 26.6 22.677 23.328V21C22.677 20.6022 22.8351 20.2206 23.1164 19.9393C23.3977 19.658 23.7792 19.5 24.177 19.5H24.18Z" fill="#7244F9"/>
<path d="M18.18 21C18.18 20.2121 18.3352 19.4319 18.6367 18.7039C18.9383 17.9759 19.3802 17.3145 19.9374 16.7574C20.4945 16.2002 21.156 15.7583 21.8839 15.4567C22.6119 15.1552 23.3921 15 24.18 15C24.968 15 25.7482 15.1552 26.4761 15.4567C27.2041 15.7583 27.8655 16.2002 28.4227 16.7574C28.9798 17.3145 29.4218 17.9759 29.7233 18.7039C30.0248 19.4319 30.18 20.2121 30.18 21C30.18 21.3978 30.022 21.7794 29.7407 22.0607C29.4594 22.342 29.0779 22.5 28.68 22.5C28.2822 22.5 27.9007 22.342 27.6194 22.0607C27.3381 21.7794 27.18 21.3978 27.18 21C27.18 20.2043 26.864 19.4413 26.3013 18.8787C25.7387 18.3161 24.9757 18 24.18 18C23.3844 18 22.6213 18.3161 22.0587 18.8787C21.4961 19.4413 21.18 20.2043 21.18 21V21.996C21.18 23.222 21.114 24.443 20.982 25.659C20.9301 26.0464 20.7291 26.3982 20.4217 26.6395C20.1143 26.8809 19.7249 26.9927 19.3363 26.9513C18.9476 26.9099 18.5906 26.7184 18.341 26.4176C18.0914 26.1169 17.9691 25.7306 18 25.341C18.12 24.231 18.18 23.116 18.18 21.996V21ZM28.707 24C28.904 24.0051 29.0981 24.0489 29.2782 24.129C29.4582 24.2091 29.6207 24.3238 29.7564 24.4668C29.8921 24.6097 29.9983 24.778 30.0689 24.9619C30.1395 25.1459 30.1732 25.342 30.168 25.539C30.0791 28.9467 29.4857 32.3223 28.407 35.556L24.609 46.956C24.4829 47.3335 24.212 47.6455 23.8559 47.8233C23.4997 48.0011 23.0876 48.0301 22.71 47.904C22.3325 47.7779 22.0205 47.507 21.8427 47.1508C21.6649 46.7947 21.6359 46.3825 21.762 46.005L25.563 34.605C26.5467 31.653 27.0876 28.5715 27.168 25.461C27.1731 25.264 27.2169 25.0699 27.297 24.8899C27.3771 24.7098 27.4919 24.5473 27.6348 24.4116C27.7777 24.2759 27.946 24.1697 28.13 24.0991C28.3139 24.0285 28.51 23.9948 28.707 24ZM18.639 30.345C18.8274 30.4032 19.0025 30.4979 19.1543 30.6238C19.306 30.7497 19.4315 30.9043 19.5234 31.0787C19.6154 31.2532 19.672 31.444 19.6901 31.6404C19.7083 31.8367 19.6875 32.0347 19.629 32.223L15.72 44.817C15.6646 45.0085 15.5716 45.1871 15.4464 45.3422C15.3212 45.4974 15.1663 45.626 14.9908 45.7206C14.8152 45.8152 14.6226 45.8738 14.4242 45.8931C14.2258 45.9124 14.0255 45.8919 13.835 45.8329C13.6446 45.7739 13.4678 45.6775 13.3151 45.5493C13.1623 45.4212 13.0367 45.2639 12.9454 45.0866C12.8542 44.9094 12.7992 44.7157 12.7837 44.5169C12.7681 44.3181 12.7924 44.1183 12.855 43.929L16.764 31.332C16.8822 30.9527 17.1459 30.6358 17.4974 30.4508C17.8489 30.2658 18.2595 30.2277 18.639 30.345Z" fill="#7244F9"/>
<path d="M14.277 17.499C15.1055 15.1668 16.731 13.2022 18.8667 11.9516C21.0025 10.7009 23.5112 10.2447 25.9505 10.6633C28.3898 11.0819 30.6029 12.3485 32.1995 14.2397C33.796 16.1308 34.6735 18.525 34.677 21C34.677 21.3978 34.519 21.7794 34.2376 22.0607C33.9563 22.342 33.5748 22.5 33.177 22.5C32.7792 22.5 32.3976 22.342 32.1163 22.0607C31.835 21.7794 31.677 21.3978 31.677 21C31.6767 19.2309 31.0511 17.5188 29.9106 16.1664C28.7702 14.8139 27.1884 13.9082 25.4448 13.6091C23.7011 13.3101 21.9079 13.637 20.382 14.5322C18.8561 15.4273 17.6957 16.8331 17.106 18.501C16.9731 18.8761 16.6967 19.1831 16.3374 19.3545C15.9782 19.5258 15.5656 19.5474 15.1905 19.4145C14.8153 19.2816 14.5083 19.0052 14.337 18.6459C14.1657 18.2867 14.1441 17.8741 14.277 17.499ZM15.177 22.509C15.5728 22.5477 15.937 22.742 16.1896 23.0491C16.4422 23.3563 16.5625 23.7512 16.524 24.147C16.3218 26.212 15.92 28.2526 15.324 30.24L11.658 42.456C11.5438 42.8371 11.2829 43.1573 10.9327 43.346C10.5825 43.5348 10.1716 43.5767 9.79049 43.4625C9.40937 43.3483 9.08922 43.0874 8.90047 42.7372C8.71171 42.387 8.66981 41.9761 8.78399 41.595L12.45 29.379C12.9908 27.5765 13.3555 25.7259 13.539 23.853C13.5777 23.4572 13.772 23.093 14.0791 22.8404C14.3863 22.5878 14.7812 22.4705 15.177 22.509ZM33.177 24.45C33.5748 24.45 33.9563 24.608 34.2376 24.8893C34.519 25.1706 34.677 25.5522 34.677 25.95C34.677 29.79 34.038 33.606 32.781 37.236L29.511 46.671C29.3686 47.0302 29.093 47.3206 28.7418 47.4816C28.3906 47.6427 27.9907 47.662 27.6256 47.5355C27.2605 47.409 26.9583 47.1466 26.7819 46.8027C26.6056 46.4589 26.5687 46.0603 26.679 45.69L29.946 36.255C31.092 32.94 31.68 29.457 31.68 25.95C31.68 25.5522 31.838 25.1706 32.1193 24.8893C32.4006 24.608 32.7822 24.45 33.18 24.45H33.177Z" fill="#7244F9"/>
<path d="M11.706 12.666C13.3738 10.1686 15.7529 8.22927 18.5352 7.09912C21.3175 5.96896 24.3751 5.69998 27.312 6.327C27.5048 6.36797 27.6877 6.44653 27.8502 6.55818C28.0127 6.66983 28.1516 6.81239 28.259 6.97773C28.3664 7.14306 28.4402 7.32793 28.4761 7.52178C28.5121 7.71562 28.5095 7.91465 28.4685 8.1075C28.4275 8.30034 28.349 8.48323 28.2373 8.64572C28.1257 8.80821 27.9831 8.94711 27.8178 9.0545C27.6524 9.16189 27.4676 9.23567 27.2737 9.27161C27.0799 9.30756 26.8808 9.30497 26.688 9.264C24.3379 8.76136 21.8911 8.9759 19.6644 9.87985C17.4377 10.7838 15.5337 12.3355 14.199 14.334C13.9746 14.657 13.6324 14.879 13.2459 14.9521C12.8595 15.0253 12.4598 14.9437 12.1329 14.725C11.806 14.5063 11.5781 14.1679 11.4982 13.7828C11.4184 13.3977 11.493 12.9966 11.706 12.666ZM31.866 9.801C32.1258 9.49994 32.4946 9.31439 32.8912 9.28513C33.2878 9.25588 33.6798 9.38532 33.981 9.645C35.6134 11.0521 36.9227 12.7951 37.8195 14.7548C38.7163 16.7146 39.1793 18.8448 39.177 21V25.5C39.177 25.8978 39.019 26.2794 38.7377 26.5607C38.4563 26.842 38.0748 27 37.677 27C37.2792 27 36.8976 26.842 36.6163 26.5607C36.335 26.2794 36.177 25.8978 36.177 25.5V21C36.1791 19.2757 35.8087 17.5713 35.091 16.0035C34.3734 14.4356 33.3254 13.0413 32.019 11.916C31.7184 11.6557 31.5334 11.2868 31.5047 10.8902C31.476 10.4936 31.606 10.1018 31.866 9.801ZM11.04 17.526C11.2351 17.5546 11.4226 17.6214 11.5918 17.7226C11.761 17.8237 11.9087 17.9573 12.0263 18.1155C12.1438 18.2738 12.2291 18.4537 12.2771 18.6449C12.3251 18.8362 12.3349 19.035 12.306 19.23C12.218 19.808 12.174 20.398 12.174 21C12.174 23.13 11.874 25.251 11.28 27.3L7.85999 39.069C7.80874 39.2623 7.71936 39.4434 7.59711 39.6016C7.47485 39.7599 7.32219 39.8921 7.1481 39.9904C6.97401 40.0888 6.782 40.1514 6.58337 40.1745C6.38474 40.1976 6.1835 40.1808 5.99148 40.125C5.79946 40.0691 5.62053 39.9755 5.46522 39.8495C5.30991 39.7236 5.18136 39.5678 5.08712 39.3915C4.99288 39.2151 4.93485 39.0217 4.91646 38.8226C4.89806 38.6234 4.91966 38.4226 4.97999 38.232L8.39999 26.463C8.91562 24.6879 9.17623 22.8485 9.17399 21C9.17399 20.25 9.22799 19.514 9.33599 18.792C9.36462 18.5969 9.43142 18.4094 9.53258 18.2402C9.63374 18.0709 9.76727 17.9233 9.92553 17.8057C10.0838 17.6882 10.2637 17.6029 10.4549 17.5549C10.6461 17.5069 10.845 17.4971 11.04 17.526ZM37.686 28.506C38.0822 28.5396 38.4488 28.7291 38.7053 29.0329C38.9618 29.3366 39.0872 29.7298 39.054 30.126C38.802 33.126 38.16 36.084 37.134 38.928L34.902 45.132C34.7628 45.5001 34.4846 45.7988 34.1273 45.9636C33.77 46.1285 33.3622 46.1463 32.9918 46.0133C32.6215 45.8803 32.3182 45.607 32.1475 45.2525C31.9767 44.8979 31.9521 44.4905 32.079 44.118L34.314 37.908C35.2465 35.3181 35.8355 32.617 36.066 29.874C36.0996 29.4778 36.2891 29.1112 36.5929 28.8547C36.8966 28.5982 37.2898 28.4728 37.686 28.506Z" fill="#7244F9"/>
<path d="M14.43 4.11C17.3946 2.39841 20.7575 1.49739 24.1806 1.4975C27.6038 1.49761 30.9666 2.39885 33.9311 4.11063C36.8955 5.82241 39.3571 8.2844 41.0684 11.2491C42.7797 14.2138 43.6804 17.5768 43.68 21C43.68 21.3978 43.522 21.7794 43.2407 22.0607C42.9594 22.342 42.5778 22.5 42.18 22.5C41.7822 22.5 41.4007 22.342 41.1193 22.0607C40.838 21.7794 40.68 21.3978 40.68 21C40.681 18.1032 39.9193 15.2571 38.4715 12.748C37.0237 10.239 34.9409 8.15524 32.4324 6.7064C29.9239 5.25756 27.0782 4.49467 24.1814 4.49442C21.2846 4.49418 18.4387 5.25659 15.93 6.705C15.5872 6.88433 15.1884 6.92427 14.8168 6.81648C14.4452 6.70868 14.1297 6.46149 13.9361 6.12654C13.7425 5.79159 13.6857 5.39478 13.7778 5.01901C13.8698 4.64323 14.1035 4.31756 14.43 4.11ZM11.76 7.881C11.907 8.01219 12.0266 8.17104 12.1122 8.34848C12.1978 8.52592 12.2475 8.71847 12.2587 8.91515C12.2698 9.11182 12.2421 9.30877 12.1771 9.49474C12.1122 9.68071 12.0112 9.85206 11.88 9.999C9.1697 13.0216 7.67365 16.9402 7.68001 21C7.68001 21.3978 7.52197 21.7794 7.24067 22.0607C6.95936 22.342 6.57783 22.5 6.18001 22.5C5.78218 22.5 5.40065 22.342 5.11935 22.0607C4.83804 21.7794 4.68001 21.3978 4.68001 21C4.68001 16.008 6.55801 11.448 9.64501 8.001C9.77619 7.85405 9.93504 7.73437 10.1125 7.64881C10.2899 7.56324 10.4825 7.51347 10.6792 7.50233C10.8758 7.49118 11.0728 7.51889 11.2587 7.58386C11.4447 7.64884 11.6131 7.74981 11.76 7.881ZM5.74501 24.06C6.12753 24.1677 6.45168 24.4228 6.64629 24.7693C6.8409 25.1158 6.89007 25.5253 6.78301 25.908L4.44601 34.209C4.39935 34.4057 4.31343 34.5909 4.19341 34.7535C4.07339 34.9161 3.92173 35.0528 3.74756 35.1554C3.57339 35.2579 3.38028 35.3242 3.17985 35.3503C2.97941 35.3763 2.77578 35.3616 2.58118 35.307C2.38657 35.2523 2.20502 35.159 2.04741 35.0324C1.8898 34.9059 1.75939 34.7488 1.66402 34.5706C1.56864 34.3924 1.51026 34.1967 1.49239 33.9954C1.47451 33.7941 1.49751 33.5912 1.56001 33.399L3.89401 25.098C3.94732 24.9083 4.0375 24.7309 4.15939 24.576C4.28129 24.4212 4.43251 24.2918 4.60441 24.1954C4.77631 24.099 4.96552 24.0375 5.16123 24.0142C5.35694 23.991 5.55531 24.0065 5.74501 24.06ZM42.195 25.503C42.392 25.5069 42.5863 25.5496 42.7668 25.6286C42.9473 25.7076 43.1105 25.8214 43.247 25.9635C43.3835 26.1055 43.4907 26.2731 43.5624 26.4566C43.6341 26.6402 43.669 26.836 43.665 27.033C43.575 31.53 43.182 36.108 41.484 40.632L41.274 41.193C41.1271 41.5553 40.8445 41.8459 40.4865 42.0029C40.1285 42.16 39.7233 42.171 39.3573 42.0338C38.9912 41.8965 38.6932 41.6217 38.5268 41.268C38.3603 40.9143 38.3385 40.5096 38.466 40.14L38.676 39.579C40.194 35.529 40.578 31.359 40.665 26.973C40.6689 26.776 40.7116 26.5817 40.7906 26.4012C40.8696 26.2207 40.9834 26.0575 41.1255 25.921C41.2676 25.7845 41.4351 25.6773 41.6187 25.6056C41.8022 25.5339 41.998 25.499 42.195 25.503Z" fill="#7244F9"/>
</svg>
