<svg width="64" height="64" viewBox="0 0 64 64" fill="none" xmlns="http://www.w3.org/2000/svg">
<g clip-path="url(#clip0_972_1009)">
<path d="M62.18 26.232C62.5535 28.3797 62.7396 30.5559 62.736 32.736C62.736 42.472 59.256 50.704 53.2 56.276H53.208C47.912 61.168 40.632 64 32 64C23.5131 64 15.3737 60.6285 9.37258 54.6274C3.37142 48.6262 0 40.4869 0 32C0 23.513 3.37142 15.3737 9.37258 9.37254C15.3737 3.37138 23.5131 -4.11147e-05 32 -4.11147e-05C39.9429 -0.0884968 47.6129 2.89523 53.408 8.32796L44.272 17.464C40.9688 14.317 36.5618 12.5932 32 12.664C23.652 12.664 16.56 18.296 14.032 25.88C12.694 29.8544 12.694 34.1576 14.032 38.132H14.044C16.584 45.704 23.664 51.336 32.012 51.336C36.324 51.336 40.028 50.232 42.9 48.28H42.888C44.5559 47.1755 45.9827 45.7444 47.082 44.0731C48.1813 42.4018 48.9304 40.5249 49.284 38.556H32V26.236L62.18 26.232Z" fill="#EFEFEF"/>
</g>
<defs>
<clipPath id="clip0_972_1009">
<rect width="64" height="64" fill="white"/>
</clipPath>
</defs>
</svg>
