<svg width="32" height="32" viewBox="0 0 32 32" fill="none" xmlns="http://www.w3.org/2000/svg">
<g clip-path="url(#clip0_972_866)">
<path d="M24.866 20.14C28.266 21.17 32 22.3 32 16C32 12.8355 31.0616 9.74207 29.3035 7.11088C27.5454 4.4797 25.0466 2.42894 22.1229 1.21793C19.1993 0.0069325 15.9823 -0.309921 12.8786 0.307443C9.77487 0.924806 6.92394 2.44866 4.6863 4.6863C2.44866 6.92394 0.924806 9.77487 0.307443 12.8786C-0.309921 15.9823 0.0069325 19.1993 1.21793 22.1229C2.42894 25.0466 4.4797 27.5454 7.11088 29.3035C9.74207 31.0616 12.8355 32 16 32C19.992 32 19.652 28.992 19.298 25.84C19.05 23.638 18.794 21.366 20 20C20.93 18.946 22.84 19.526 24.866 20.14ZM16 10C15.606 10 15.2159 9.92241 14.852 9.77165C14.488 9.62088 14.1573 9.3999 13.8787 9.12133C13.6001 8.84275 13.3791 8.51203 13.2284 8.14806C13.0776 7.78408 13 7.39397 13 7.00001C13 6.60604 13.0776 6.21593 13.2284 5.85196C13.3791 5.48798 13.6001 5.15726 13.8787 4.87869C14.1573 4.60011 14.488 4.37913 14.852 4.22837C15.2159 4.0776 15.606 4.00001 16 4.00001C16.7957 4.00001 17.5587 4.31608 18.1213 4.87869C18.6839 5.4413 19 6.20436 19 7.00001C19 7.79566 18.6839 8.55872 18.1213 9.12133C17.5587 9.68394 16.7957 10 16 10ZM25 16C24.2044 16 23.4413 15.6839 22.8787 15.1213C22.3161 14.5587 22 13.7957 22 13C22 12.2044 22.3161 11.4413 22.8787 10.8787C23.4413 10.3161 24.2044 10 25 10C25.7957 10 26.5587 10.3161 27.1213 10.8787C27.6839 11.4413 28 12.2044 28 13C28 13.7957 27.6839 14.5587 27.1213 15.1213C26.5587 15.6839 25.7957 16 25 16ZM10 13C10 13.394 9.92241 13.7841 9.77165 14.1481C9.62088 14.512 9.3999 14.8428 9.12133 15.1213C8.84275 15.3999 8.51203 15.6209 8.14806 15.7716C7.78408 15.9224 7.39397 16 7.00001 16C6.60604 16 6.21593 15.9224 5.85196 15.7716C5.48798 15.6209 5.15726 15.3999 4.87869 15.1213C4.60011 14.8428 4.37913 14.512 4.22837 14.1481C4.0776 13.7841 4.00001 13.394 4.00001 13C4.00001 12.2044 4.31608 11.4413 4.87869 10.8787C5.4413 10.3161 6.20436 10 7.00001 10C7.79566 10 8.55872 10.3161 9.12133 10.8787C9.68394 11.4413 10 12.2044 10 13ZM11 26C10.2044 26 9.4413 25.6839 8.87869 25.1213C8.31608 24.5587 8.00001 23.7957 8.00001 23C8.00001 22.2044 8.31608 21.4413 8.87869 20.8787C9.4413 20.3161 10.2044 20 11 20C11.7957 20 12.5587 20.3161 13.1213 20.8787C13.6839 21.4413 14 22.2044 14 23C14 23.7957 13.6839 24.5587 13.1213 25.1213C12.5587 25.6839 11.7957 26 11 26Z" fill="#7244F9"/>
</g>
<defs>
<clipPath id="clip0_972_866">
<rect width="32" height="32" fill="white"/>
</clipPath>
</defs>
</svg>
