<svg width="24" height="24" viewBox="0 0 24 24" fill="none" xmlns="http://www.w3.org/2000/svg">
<g clip-path="url(#clip0_973_3969)">
<path d="M-6.10352e-05 1.719C-6.10352e-05 0.7695 0.788939 0 1.76244 0H22.2374C23.2109 0 23.9999 0.7695 23.9999 1.719V22.281C23.9999 23.2305 23.2109 24 22.2374 24H1.76244C0.788939 24 -6.10352e-05 23.2305 -6.10352e-05 22.281V1.719ZM7.41444 20.091V9.2535H3.81294V20.091H7.41444ZM5.61444 7.773C6.86994 7.773 7.65144 6.942 7.65144 5.901C7.62894 4.8375 6.87144 4.029 5.63844 4.029C4.40544 4.029 3.59994 4.839 3.59994 5.901C3.59994 6.942 4.38144 7.773 5.59044 7.773H5.61444ZM12.9764 20.091V14.0385C12.9764 13.7145 13.0004 13.3905 13.0964 13.1595C13.3559 12.513 13.9484 11.8425 14.9444 11.8425C16.2479 11.8425 16.7684 12.8355 16.7684 14.2935V20.091H20.3699V13.875C20.3699 10.545 18.5939 8.997 16.2239 8.997C14.3129 8.997 13.4564 10.047 12.9764 10.7865V10.824H12.9524L12.9764 10.7865V9.2535H9.37644C9.42144 10.2705 9.37644 20.091 9.37644 20.091H12.9764Z" fill="#EFEFEF"/>
</g>
<defs>
<clipPath id="clip0_973_3969">
<rect width="24" height="24" fill="white"/>
</clipPath>
</defs>
</svg>
