<svg width="102" height="64" viewBox="0 0 102 64" fill="none" xmlns="http://www.w3.org/2000/svg">
<g filter="url(#filter0_d_972_974)">
<path d="M37.9307 33.0959C42.6938 27.7443 44.6986 23.425 45.4481 20.2578C45.8817 18.4265 45.8899 16.9957 45.7784 15.9943C45.7351 15.6015 45.6606 15.2128 45.5555 14.8319C45.5114 14.6705 45.4577 14.5119 45.3944 14.357C45.2437 14.0184 45.0476 13.8718 44.6677 13.7459C44.5589 13.7104 44.4487 13.6794 44.3373 13.653C43.9502 13.5607 43.5569 13.4965 43.1605 13.461C42.1488 13.3701 40.7035 13.399 38.866 13.8491C35.6946 14.6213 31.396 16.622 26.1456 21.2902L21.1904 21.7815H21.178C19.9873 21.914 18.8773 22.4486 18.0315 23.297L13.1135 28.2233C12.9577 28.3801 12.855 28.5819 12.8199 28.8002C12.7848 29.0184 12.8189 29.2422 12.9176 29.44C13.0163 29.6378 13.1745 29.7997 13.37 29.903C13.5655 30.0062 13.7884 30.0455 14.0075 30.0154L17.9221 29.4559C18.5002 29.3733 19.1443 29.4827 19.8938 29.7284C20.3728 29.8853 20.7961 30.0588 21.2462 30.2405L21.6653 30.4118C22.07 32.0966 23.028 33.674 24.2977 34.9437C25.5634 36.2114 27.1387 37.1736 28.8214 37.5803L28.9907 37.9974C29.1744 38.4475 29.3479 38.8728 29.5048 39.3539C29.7484 40.1033 29.8599 40.7496 29.7773 41.3277L29.2178 45.2505C29.1883 45.4691 29.2279 45.6915 29.331 45.8864C29.4342 46.0814 29.5957 46.2392 29.7931 46.3378C29.9904 46.4363 30.2136 46.4707 30.4315 46.436C30.6493 46.4014 30.8509 46.2995 31.0079 46.1445L35.9259 41.2182C36.7724 40.3717 37.3051 39.2589 37.4372 38.0676L37.9307 33.0959ZM38.1578 25.4587C36.5122 27.1104 34.173 27.4428 32.9383 26.2061C31.7037 24.9673 32.0381 22.6281 33.6837 20.9784C35.3313 19.3287 37.6685 18.9963 38.9031 20.233C40.1378 21.4698 39.8054 23.809 38.1598 25.4587H38.1578Z" fill="#EFEFEF"/>
<path d="M23.5507 35.691C24.6466 36.8015 25.902 37.7423 27.2754 38.4824C24.9671 40.5616 17.0987 42.6696 16.8406 42.4115C16.5804 42.1493 18.3622 33.7626 20.6375 31.7166C21.3519 33.1412 22.3656 34.5038 23.5507 35.691Z" fill="#EFEFEF"/>
</g>
<path opacity="0.5" d="M35.5161 42.6175C35.5161 41.6789 35.889 40.7787 36.5527 40.115C37.2165 39.4512 38.1167 39.0784 39.0553 39.0784H46.1337C47.0723 39.0784 47.9725 39.4512 48.6362 40.115C49.3 40.7787 49.6728 41.6789 49.6728 42.6175V53.235C49.6728 54.1737 49.3 55.0739 48.6362 55.7376C47.9725 56.4013 47.0723 56.7742 46.1337 56.7742H39.0553C38.1167 56.7742 37.2165 56.4013 36.5527 55.7376C35.889 55.0739 35.5161 54.1737 35.5161 53.235V42.6175ZM53.212 28.4609C53.212 27.5222 53.5849 26.622 54.2486 25.9583C54.9123 25.2946 55.8125 24.9217 56.7512 24.9217H63.8295C64.7682 24.9217 65.6684 25.2946 66.3321 25.9583C66.9958 26.622 67.3687 27.5222 67.3687 28.4609V53.235C67.3687 54.1737 66.9958 55.0739 66.3321 55.7376C65.6684 56.4013 64.7682 56.7742 63.8295 56.7742H56.7512C55.8125 56.7742 54.9123 56.4013 54.2486 55.7376C53.5849 55.0739 53.212 54.1737 53.212 53.235V28.4609ZM70.9079 10.765C70.9079 9.82635 71.2807 8.92615 71.9445 8.26243C72.6082 7.59871 73.5084 7.22583 74.447 7.22583H81.5254C82.464 7.22583 83.3642 7.59871 84.0279 8.26243C84.6917 8.92615 85.0645 9.82635 85.0645 10.765V53.235C85.0645 54.1737 84.6917 55.0739 84.0279 55.7376C83.3642 56.4013 82.464 56.7742 81.5254 56.7742H74.447C73.5084 56.7742 72.6082 56.4013 71.9445 55.7376C71.2807 55.0739 70.9079 54.1737 70.9079 53.235V10.765Z" fill="#7244F9"/>
<defs>
<filter id="filter0_d_972_974" x="8.80646" y="11.4194" width="41.0323" height="41.0298" filterUnits="userSpaceOnUse" color-interpolation-filters="sRGB">
<feFlood flood-opacity="0" result="BackgroundImageFix"/>
<feColorMatrix in="SourceAlpha" type="matrix" values="0 0 0 0 0 0 0 0 0 0 0 0 0 0 0 0 0 0 127 0" result="hardAlpha"/>
<feOffset dy="2"/>
<feGaussianBlur stdDeviation="2"/>
<feComposite in2="hardAlpha" operator="out"/>
<feColorMatrix type="matrix" values="0 0 0 0 0 0 0 0 0 0 0 0 0 0 0 0 0 0 0.25 0"/>
<feBlend mode="normal" in2="BackgroundImageFix" result="effect1_dropShadow_972_974"/>
<feBlend mode="normal" in="SourceGraphic" in2="effect1_dropShadow_972_974" result="shape"/>
</filter>
</defs>
</svg>
