<svg width="64" height="64" viewBox="0 0 64 64" fill="none" xmlns="http://www.w3.org/2000/svg">
<g clip-path="url(#clip0_972_1017)">
<path d="M32 6.44083e-06C24.5388 -0.0047254 17.3105 2.59791 11.5648 7.3579C5.81921 12.1179 1.91751 18.736 0.534354 26.0679C-0.848797 33.3998 0.373558 40.9845 3.99007 47.5107C7.60658 54.0368 13.3899 59.0941 20.34 61.808C20.06 59.276 19.804 55.384 20.448 52.62C21.032 50.12 24.2 36.712 24.2 36.712C24.2 36.712 23.244 34.796 23.244 31.964C23.244 27.512 25.824 24.192 29.036 24.192C31.764 24.192 33.084 26.24 33.084 28.7C33.084 31.444 31.336 35.548 30.432 39.352C29.68 42.536 32.032 45.136 35.172 45.136C40.86 45.136 45.232 39.136 45.232 30.48C45.232 22.82 39.724 17.464 31.864 17.464C22.76 17.464 17.416 24.292 17.416 31.348C17.416 34.1 18.476 37.048 19.796 38.652C19.9097 38.7729 19.9901 38.9212 20.0293 39.0825C20.0686 39.2437 20.0654 39.4124 20.02 39.572C19.776 40.58 19.236 42.756 19.132 43.2C18.992 43.784 18.668 43.908 18.06 43.628C14.06 41.768 11.564 35.924 11.564 31.228C11.564 21.136 18.9 11.868 32.708 11.868C43.808 11.868 52.436 19.776 52.436 30.348C52.436 41.376 45.48 50.252 35.832 50.252C32.588 50.252 29.54 48.568 28.496 46.576L26.504 54.184C25.78 56.964 23.828 60.448 22.524 62.572C26.9239 63.9324 31.5656 64.3271 36.132 63.7291C40.6984 63.131 45.0819 61.5544 48.9831 59.1068C52.8843 56.6593 56.2112 53.3985 58.7366 49.5472C61.262 45.696 62.9263 41.345 63.6159 36.7915C64.3055 32.238 64.0041 27.5893 62.7323 23.163C61.4604 18.7367 59.2482 14.6371 56.2467 11.1441C53.2451 7.65124 49.525 4.84736 45.3404 2.92406C41.1558 1.00077 36.6054 0.00336921 32 6.44083e-06Z" fill="#EFEFEF"/>
</g>
<defs>
<clipPath id="clip0_972_1017">
<rect width="64" height="64" fill="white"/>
</clipPath>
</defs>
</svg>
