<svg width="48" height="48" viewBox="0 0 48 48" fill="none" xmlns="http://www.w3.org/2000/svg">
<path d="M15.9115 29.4982C17.4389 31.0256 19.4455 31.7894 21.4519 31.7894C23.4584 31.7894 25.4649 31.0256 26.9923 29.4981C28.4724 28.0182 29.2873 26.0506 29.2873 23.9578C29.2873 21.865 28.4724 19.8973 26.9923 18.4173C23.9375 15.3625 18.9663 15.3625 15.9116 18.4173C14.4316 19.8972 13.6166 21.8648 13.6166 23.9577C13.6166 26.0506 14.4315 28.0183 15.9115 29.4982ZM16.9831 19.4893C19.4473 17.0254 23.4567 17.0254 25.9205 19.4893C27.1141 20.6829 27.7714 22.2698 27.7714 23.9578C27.7714 25.6457 27.114 27.2326 25.9205 28.4262C23.4564 30.8902 19.4472 30.8902 16.9831 28.4262C15.7895 27.2326 15.1322 25.6457 15.1322 23.9578C15.1322 22.2698 15.7896 20.6829 16.9831 19.4893Z" fill="#7244F9"/>
<path d="M44.6599 40.3965L37.8461 33.5653C39.4181 30.8845 40.3021 27.8615 40.4256 24.7473H43.7036C44.1846 24.7473 44.6509 24.5479 44.9833 24.2003C45.3198 23.8485 45.4932 23.3873 45.4716 22.9017C45.2042 16.9063 42.715 11.2625 38.4626 7.01031C34.2104 2.7582 28.5666 0.269046 22.5711 0.00167156C22.0857 -0.0190471 21.6243 0.153359 21.2724 0.489827C20.9248 0.822264 20.7254 1.28886 20.7254 1.76979V5.04775C10.6226 5.44685 2.52628 13.7905 2.52628 23.9893C2.52628 34.442 11.0304 42.946 21.4835 42.946C24.8617 42.946 28.1571 42.052 31.0536 40.3552L37.8681 47.187C38.4101 47.729 39.1218 48 39.8338 48C40.5457 48 41.2578 47.729 41.7996 47.187L44.6592 44.3274C45.1844 43.8023 45.4736 43.1043 45.4736 42.3617C45.4735 41.619 45.1844 40.9208 44.6599 40.3965ZM36.7361 32.4525L35.9296 31.644C35.9294 31.6438 35.9292 31.6436 35.929 31.6435C35.4039 31.1184 34.7058 30.8291 33.9632 30.8291C33.4806 30.8291 33.0166 30.9513 32.6068 31.181L31.2197 29.794C32.1342 28.2697 32.6764 26.5496 32.7991 24.7474H38.9084C38.7917 27.458 38.0487 30.0914 36.7361 32.4525ZM31.4615 32.1792L29.6737 33.967L28.5514 32.8448C28.8776 32.5839 29.1926 32.3023 29.4946 32.0003C29.7957 31.6993 30.0775 31.3848 30.3399 31.0574L31.4615 32.1792ZM22.2414 1.7697C22.2414 1.67492 22.2908 1.61351 22.3202 1.58529C22.3492 1.55773 22.4112 1.5117 22.5036 1.51601C34.212 2.03829 43.4353 11.2611 43.9575 22.9692C43.9615 23.0613 43.9158 23.1237 43.888 23.1525C43.8598 23.1821 43.7983 23.2315 43.7036 23.2315H32.8033C32.6304 20.4666 31.4709 17.8915 29.4945 15.9152C27.4777 13.8984 24.8854 12.7989 22.2414 12.6164V1.7697ZM21.4519 14.1044C23.9764 14.1044 26.5009 15.0653 28.4228 16.9871C30.2848 18.8489 31.3102 21.3245 31.3102 23.9578C31.3102 23.96 31.3102 23.9624 31.3102 23.9646C31.3099 23.9727 31.3098 23.9811 31.3098 23.9893C31.3098 23.996 31.3099 24.0027 31.3101 24.0095C31.3001 25.9685 30.7223 27.8384 29.6547 29.4311C29.633 29.4586 29.6136 29.4874 29.5963 29.517C29.2531 30.0175 28.8613 30.4899 28.4228 30.9283C27.9714 31.3797 27.487 31.7779 26.9769 32.1233C26.9713 32.127 26.9656 32.1308 26.9601 32.1346C25.302 33.2524 23.3772 33.8111 21.4517 33.811C18.9275 33.8109 16.4025 32.8498 14.4809 30.9283C12.6189 29.0664 11.5935 26.5907 11.5935 23.9577C11.5935 21.3245 12.6188 18.8489 14.4809 16.987C16.4029 15.0652 18.9274 14.1044 21.4519 14.1044ZM21.4835 41.4301C11.8663 41.4301 4.04212 33.6062 4.04212 23.9893C4.04212 14.6265 11.4589 6.96325 20.7256 6.56472V12.6122C18.0595 12.7812 15.4423 13.8823 13.4093 15.9152C11.2609 18.0634 10.0778 20.9197 10.0778 23.9578C10.0778 26.9958 11.2609 29.852 13.4093 32.0003C17.1662 35.757 22.9187 36.3316 27.286 33.7229L28.6754 35.1124C28.4458 35.5222 28.3236 35.9859 28.3236 36.4686C28.3236 37.2111 28.6128 37.9093 29.1373 38.4337L29.9443 39.2429C27.3644 40.6765 24.4588 41.4301 21.4835 41.4301ZM43.5876 43.2554L40.7279 46.115C40.2349 46.6081 39.4329 46.6079 38.9405 46.1157L31.7168 38.8735C31.7094 38.8657 31.7018 38.8582 31.694 38.8508L30.2096 37.3626C29.9709 37.1238 29.8393 36.8063 29.8393 36.4687C29.8393 36.1311 29.9709 35.8135 30.2096 35.5748L33.0694 32.7152C33.5622 32.2224 34.3643 32.2222 34.8571 32.7152L36.3414 34.2033C36.3486 34.2109 36.3561 34.2183 36.3636 34.2256L43.5874 41.4678C43.8262 41.7066 43.9576 42.024 43.9576 42.3616C43.9577 42.6991 43.8264 43.0165 43.5876 43.2554Z" fill="#7244F9"/>
</svg>
