<svg width="48" height="48" viewBox="0 0 48 48" fill="none" xmlns="http://www.w3.org/2000/svg">
<path fill-rule="evenodd" clip-rule="evenodd" d="M42 6C41.1547 17.512 38.1547 25.8453 33 31C32.0858 31.9142 31.0849 32.7499 29.9971 33.5071L29.9971 37.9908L23.9971 43.9908L20.3358 37.5835L10.4242 27.671L4 24L10 18L14.5075 18C15.2579 16.9113 16.0887 15.9113 17 15C22.1547 9.84535 30.488 6.84535 42 6ZM37.5 10.498L36.6441 10.6278C28.9684 11.8357 23.3841 14.2727 19.8284 17.8284C17.6879 19.9689 16.0597 22.7562 14.9571 26.2389L14.884 26.474L21.586 33.176L21.9176 33.0718C25.0498 32.0202 27.6227 30.5445 29.6705 28.6531L30.1716 28.1716C33.7273 24.6159 36.1643 19.0316 37.3722 11.3559L37.5 10.498ZM11.1241 31.2533L6.88143 35.4959L4.05301 32.6675L8.29565 28.4248L11.1241 31.2533ZM15.3667 35.4959L8.29565 42.567L5.46722 39.7385L12.5383 32.6675L15.3667 35.4959ZM16.7809 36.9101L19.6094 39.7385L15.3667 43.9812L12.5383 41.1527L16.7809 36.9101ZM27 18C28.6569 18 30 19.3431 30 21C30 22.6569 28.6569 24 27 24C25.3431 24 24 22.6569 24 21C24 19.3431 25.3431 18 27 18Z" fill="#7244F9"/>
</svg>
