<svg width="56" height="56" viewBox="0 0 56 56" fill="none" xmlns="http://www.w3.org/2000/svg">
<g clip-path="url(#clip0_972_938)">
<path d="M41.097 36.204C44.486 31.5794 46.0039 25.8457 45.3471 20.15C44.6902 14.4543 41.9069 9.21667 37.5542 5.48494C33.2014 1.75321 27.6001 -0.197402 21.8709 0.023354C16.1417 0.24411 10.7071 2.61995 6.65444 6.67556C2.60173 10.7312 0.229776 16.1675 0.0131196 21.8968C-0.203537 27.6262 1.75108 33.226 5.48593 37.5761C9.22077 41.9262 14.4604 44.7057 20.1566 45.3585C25.8527 46.0113 31.5853 44.4893 36.2075 41.097H36.204C36.3067 41.237 36.421 41.3712 36.547 41.4995L50.022 54.9745C50.6783 55.6312 51.5686 56.0004 52.497 56.0007C53.4255 56.001 54.316 55.6325 54.9727 54.9762C55.6295 54.32 55.9986 53.4297 55.999 52.5012C55.9993 51.5728 55.6308 50.6822 54.9745 50.0255L41.4995 36.5505C41.3744 36.4238 41.2399 36.3102 41.097 36.204ZM42 22.75C42 25.2779 41.5021 27.7811 40.5347 30.1166C39.5673 32.4522 38.1493 34.5743 36.3618 36.3618C34.5743 38.1493 32.4522 39.5673 30.1167 40.5347C27.7811 41.5021 25.2779 42 22.75 42C20.2221 42 17.7189 41.5021 15.3833 40.5347C13.0478 39.5673 10.9257 38.1493 9.13819 36.3618C7.35067 34.5743 5.93272 32.4522 4.96532 30.1166C3.99792 27.7811 3.5 25.2779 3.5 22.75C3.5 17.6446 5.52812 12.7483 9.13819 9.13818C12.7483 5.52811 17.6446 3.49999 22.75 3.49999C27.8554 3.49999 32.7517 5.52811 36.3618 9.13818C39.9719 12.7483 42 17.6446 42 22.75Z" fill="#7244F9"/>
</g>
<defs>
<clipPath id="clip0_972_938">
<rect width="56" height="56" fill="white"/>
</clipPath>
</defs>
</svg>
