<svg width="64" height="64" viewBox="0 0 64 64" fill="none" xmlns="http://www.w3.org/2000/svg">
<g clip-path="url(#clip0_972_1013)">
<path d="M36 0H43.92C44.496 2.86 46.08 6.468 48.86 10.048C51.58 13.556 55.188 16 60 16V24C52.988 24 47.72 20.744 44 16.684V44C44 47.9556 42.827 51.8224 40.6294 55.1114C38.4318 58.4004 35.3082 60.9638 31.6537 62.4776C27.9992 63.9913 23.9778 64.3874 20.0982 63.6157C16.2186 62.844 12.6549 60.9392 9.85787 58.1421C7.06082 55.3451 5.156 51.7814 4.3843 47.9018C3.61259 44.0222 4.00866 40.0009 5.52241 36.3463C7.03616 32.6918 9.59961 29.5682 12.8886 27.3706C16.1776 25.173 20.0444 24 24 24V32C21.6266 32 19.3065 32.7038 17.3332 34.0224C15.3598 35.3409 13.8217 37.2151 12.9134 39.4078C12.0052 41.6005 11.7676 44.0133 12.2306 46.3411C12.6936 48.6689 13.8365 50.8071 15.5147 52.4853C17.193 54.1635 19.3311 55.3064 21.6589 55.7694C23.9867 56.2324 26.3995 55.9948 28.5922 55.0866C30.7849 54.1783 32.6591 52.6402 33.9776 50.6668C35.2962 48.6935 36 46.3734 36 44V0Z" fill="#EFEFEF"/>
</g>
<defs>
<clipPath id="clip0_972_1013">
<rect width="64" height="64" fill="white"/>
</clipPath>
</defs>
</svg>
