<svg width="32" height="32" viewBox="0 0 32 32" fill="none" xmlns="http://www.w3.org/2000/svg">
<g clip-path="url(#clip0_972_871)">
<path d="M23.484 20.688C25.4206 18.0453 26.288 14.7689 25.9126 11.5143C25.5372 8.25957 23.9468 5.26663 21.4595 3.13422C18.9722 1.0018 15.7715 -0.112836 12.4977 0.0133103C9.22384 0.139457 6.11836 1.49708 3.80253 3.81457C1.4867 6.13206 0.131296 9.23851 0.00749253 12.5124C-0.116311 15.7863 1.00061 18.9863 3.13481 21.472C5.26901 23.9578 8.26308 25.5461 11.518 25.9191C14.773 26.2922 18.0488 25.4224 20.69 23.484H20.688C20.7467 23.564 20.812 23.6406 20.884 23.714L28.584 31.414C28.959 31.7892 29.4677 32.0002 29.9983 32.0004C30.5288 32.0005 31.0377 31.79 31.413 31.415C31.7883 31.0399 31.9992 30.5312 31.9994 30.0007C31.9996 29.4701 31.789 28.9612 31.414 28.586L23.714 20.886C23.6425 20.8135 23.5656 20.7487 23.484 20.688ZM24 13C24 14.4445 23.7155 15.8749 23.1627 17.2095C22.6099 18.5441 21.7996 19.7567 20.7782 20.7781C19.7567 21.7996 18.5441 22.6098 17.2095 23.1626C15.8749 23.7154 14.4445 24 13 24C11.5555 24 10.1251 23.7154 8.79048 23.1626C7.4559 22.6098 6.24326 21.7996 5.22182 20.7781C4.20038 19.7567 3.39012 18.5441 2.83732 17.2095C2.28452 15.8749 2 14.4445 2 13C2 10.0826 3.15892 7.28468 5.22182 5.22178C7.28472 3.15888 10.0826 1.99996 13 1.99996C15.9174 1.99996 18.7153 3.15888 20.7782 5.22178C22.8411 7.28468 24 10.0826 24 13Z" fill="#7244F9"/>
</g>
<defs>
<clipPath id="clip0_972_871">
<rect width="32" height="32" fill="white"/>
</clipPath>
</defs>
</svg>
