<svg width="64" height="64" viewBox="0 0 64 64" fill="none" xmlns="http://www.w3.org/2000/svg">
<path d="M32.204 7.99609H32.56C35.848 8.00809 52.508 8.12809 57 9.33609C58.358 9.70477 59.5954 10.4234 60.5886 11.4201C61.5819 12.4169 62.2961 13.6568 62.66 15.0161C63.064 16.5361 63.348 18.5481 63.54 20.6241L63.58 21.0401L63.668 22.0801L63.7 22.4961C63.96 26.1521 63.992 29.5761 63.996 30.3241V30.6241C63.992 31.4001 63.956 35.0561 63.668 38.8641L63.636 39.2841L63.6 39.7001C63.4 41.9881 63.104 44.2601 62.66 45.9321C62.2961 47.2914 61.5819 48.5313 60.5886 49.5281C59.5954 50.5248 58.358 51.2434 57 51.6121C52.36 52.8601 34.724 52.9481 32.28 52.9521H31.712C30.476 52.9521 25.364 52.9281 20.004 52.7441L19.324 52.7201L18.976 52.7041L18.292 52.6761L17.608 52.6481C13.168 52.4521 8.94 52.1361 6.992 51.6081C5.63451 51.2398 4.3974 50.5218 3.4042 49.5257C2.41101 48.5298 1.69649 47.2906 1.332 45.9321C0.888 44.2641 0.592 41.9881 0.392 39.7001L0.36 39.2801L0.328 38.8641C0.129454 36.1538 0.0200613 33.4376 0 30.7201L0 30.2281C0.008 29.3681 0.04 26.3961 0.256 23.1161L0.284 22.7041L0.296 22.4961L0.328 22.0801L0.416 21.0401L0.456 20.6241C0.648 18.5481 0.932 16.5321 1.336 15.0161C1.69988 13.6568 2.41413 12.4169 3.40736 11.4201C4.40059 10.4234 5.63803 9.70477 6.996 9.33609C8.944 8.81609 13.172 8.49609 17.612 8.29609L18.292 8.26809L18.98 8.24409L19.324 8.23209L20.008 8.20409C23.8148 8.08171 27.6232 8.0137 31.432 8.00009L32.204 7.99609ZM25.6 20.8361V40.1081L42.228 30.4761L25.6 20.8361Z" fill="#EFEFEF"/>
</svg>
