<svg width="24" height="24" viewBox="0 0 24 24" fill="none" xmlns="http://www.w3.org/2000/svg">
<g clip-path="url(#clip0_973_3957)">
<path d="M12.0764 2.99854H12.2099C13.4429 3.00304 19.6904 3.04804 21.3749 3.50104C21.8842 3.63929 22.3482 3.90877 22.7207 4.28255C23.0931 4.65633 23.361 5.12131 23.4974 5.63104C23.6489 6.20104 23.7554 6.95554 23.8274 7.73404L23.8424 7.89004L23.8754 8.28004L23.8874 8.43604C23.9849 9.80704 23.9969 11.091 23.9984 11.3715V11.484C23.9969 11.775 23.9834 13.146 23.8754 14.574L23.8634 14.7315L23.8499 14.8875C23.7749 15.7455 23.6639 16.5975 23.4974 17.2245C23.361 17.7343 23.0931 18.1992 22.7207 18.573C22.3482 18.9468 21.8842 19.2163 21.3749 19.3545C19.6349 19.8225 13.0214 19.8555 12.1049 19.857H11.8919C11.4284 19.857 9.51144 19.848 7.50144 19.779L7.24644 19.77L7.11594 19.764L6.85944 19.7535L6.60294 19.743C4.93794 19.6695 3.35244 19.551 2.62194 19.353C2.11288 19.2149 1.64896 18.9457 1.27652 18.5722C0.904068 18.1987 0.636124 17.734 0.499439 17.2245C0.332939 16.599 0.221939 15.7455 0.146939 14.8875L0.134939 14.73L0.122939 14.574C0.0484841 13.5577 0.00746194 12.5391 -6.10352e-05 11.52L-6.10352e-05 11.3355C0.00293896 11.013 0.014939 9.89854 0.095939 8.66854L0.106439 8.51404L0.110939 8.43604L0.122939 8.28004L0.155939 7.89004L0.170939 7.73404C0.242939 6.95554 0.349439 6.19954 0.500939 5.63104C0.637395 5.12131 0.905237 4.65633 1.2777 4.28255C1.65016 3.90877 2.1142 3.63929 2.62344 3.50104C3.35394 3.30604 4.93944 3.18604 6.60444 3.11104L6.85944 3.10054L7.11744 3.09154L7.24644 3.08704L7.50294 3.07654C8.9305 3.03064 10.3586 3.00514 11.7869 3.00004L12.0764 2.99854ZM9.59994 7.81354V15.0405L15.8354 11.4285L9.59994 7.81354Z" fill="#EFEFEF"/>
</g>
<defs>
<clipPath id="clip0_973_3957">
<rect width="24" height="24" fill="white"/>
</clipPath>
</defs>
</svg>
